<?xml version="1.0" encoding="utf-8"?>
<!-- Generator: Adobe Illustrator 16.0.5, SVG Export Plug-In . SVG Version: 6.00 Build 0)  -->
<!DOCTYPE svg PUBLIC "-//W3C//DTD SVG 1.1//EN" "http://www.w3.org/Graphics/SVG/1.1/DTD/svg11.dtd">
<svg version="1.1" id="Layer_1" xmlns="http://www.w3.org/2000/svg" xmlns:xlink="http://www.w3.org/1999/xlink" x="0px" y="0px"
	 width="54.375px" height="75px" viewBox="7.375 0 54.375 75" enable-background="new 7.375 0 54.375 75" xml:space="preserve">
<g>
	<path fill="#FFFFFF" d="M52.729,36.807c1.523-1.587,0.971-2.885-1.229-2.885l-9.164-0.001c-2.2,0-3.541-1.741-2.98-3.868
		l4.713-17.87c0.561-2.127-0.228-2.569-1.751-0.982L16.396,38.194c-1.524,1.587-0.971,2.885,1.229,2.885l9.165,0.002
		c2.2,0,3.541,1.74,2.98,3.868l-4.712,17.867c-0.561,2.128,0.227,2.57,1.75,0.983L52.729,36.807z"/>
	<path fill="none" stroke="#FFFFFF" stroke-miterlimit="10" d="M52.729,36.807c1.523-1.587,0.971-2.885-1.229-2.885l-9.164-0.001
		c-2.2,0-3.541-1.741-2.98-3.868l4.713-17.87c0.561-2.127-0.228-2.569-1.751-0.982L16.396,38.194
		c-1.524,1.587-0.971,2.885,1.229,2.885l9.165,0.002c2.2,0,3.541,1.74,2.98,3.868l-4.712,17.867c-0.561,2.128,0.227,2.57,1.75,0.983
		L52.729,36.807z"/>
</g>
<g>
	<g>
		<path fill="#FFFFFF" d="M28.33,53.229c-1.398,0-2.653-0.421-3.73-1.25c-1.181-0.904-1.806-2.203-1.806-3.755
			c0-0.633,0.264-1.887,2.18-6.738c0.017-0.043,0.033-0.085,0.05-0.127c-0.345,0.279-0.863,0.519-1.621,0.519h-0.19
			c-1.75-0.005-2.506-1.102-2.506-2.186c0-0.618,0.224-1.4,0.725-2.535c0.479-1.08,1.293-2.165,2.418-3.227
			c1.27-1.196,2.712-1.803,4.29-1.803c1.464,0,2.746,0.448,3.81,1.331c1.13,0.939,1.728,2.204,1.728,3.657
			c0,0.586-0.168,1.639-2.18,6.748c-0.025,0.063-0.05,0.126-0.074,0.188c0.397-0.333,0.963-0.527,1.661-0.55l0.278-0.001
			c1.736,0,2.418,1.099,2.474,2.039c0.002,0.455-0.092,0.88-0.312,1.511c-0.184,0.53-0.462,1.121-0.851,1.803
			c-0.385,0.673-0.834,1.314-1.336,1.911c-0.568,0.67-1.275,1.243-2.104,1.707C30.33,52.975,29.354,53.229,28.33,53.229z
			 M30.88,30.39c-0.935,0-1.768-0.323-2.411-0.933c-0.665-0.631-1.016-1.469-1.016-2.423c0-1.107,0.457-2.121,1.321-2.933
			c0.839-0.787,1.853-1.203,2.935-1.203c0.938,0,1.778,0.333,2.429,0.963c0.664,0.639,1.016,1.468,1.016,2.396
			c0,0.723-0.219,1.805-1.263,2.857C33.062,29.948,32.021,30.39,30.88,30.39z"/>
		<path fill="#2C3E50" d="M31.709,24.397c0.552,0,1.014,0.181,1.386,0.541c0.374,0.359,0.559,0.8,0.559,1.318
			c0,0.644-0.275,1.244-0.828,1.8c-0.553,0.557-1.202,0.833-1.946,0.833c-0.553,0-1.011-0.173-1.377-0.521
			c-0.367-0.348-0.55-0.794-0.55-1.336c0-0.695,0.283-1.309,0.848-1.84C30.367,24.663,31.002,24.397,31.709,24.397 M28.139,33.628
			c1.111,0,2.062,0.329,2.853,0.985c0.789,0.656,1.185,1.492,1.185,2.503c0,0.62-0.692,2.685-2.076,6.198
			c-1.383,3.515-2.075,5.593-2.075,6.238c0,0.493,0.209,0.737,0.625,0.737c0.525,0,1.029-0.254,1.51-0.76
			c0.48-0.504,0.846-1.048,1.096-1.629c0.25-0.579,0.48-1.154,0.693-1.725c0.211-0.569,0.33-0.865,0.355-0.892
			c0.154-0.175,0.428-0.271,0.824-0.283h0.23c0.626,0,0.952,0.209,0.977,0.628c0,0.175-0.076,0.485-0.23,0.927
			c-0.153,0.441-0.399,0.961-0.738,1.556c-0.339,0.592-0.733,1.156-1.18,1.687c-0.449,0.529-1.012,0.985-1.689,1.364
			c-0.678,0.379-1.402,0.567-2.168,0.567c-1.062,0-2-0.311-2.815-0.938c-0.815-0.624-1.221-1.481-1.221-2.566
			c0-0.619,0.69-2.682,2.075-6.188c1.383-3.508,2.076-5.583,2.076-6.228c0-0.492-0.215-0.739-0.645-0.739
			c-0.644,0-1.308,0.458-1.99,1.375c-0.393,0.546-0.695,1.094-0.909,1.642c-0.215,0.547-0.352,0.971-0.409,1.271
			c-0.057,0.298-0.161,0.542-0.312,0.733c-0.151,0.192-0.412,0.286-0.777,0.286h-0.19c-0.012,0-0.031,0-0.055,0
			c-0.634-0.002-0.951-0.229-0.951-0.686c0-0.388,0.2-1.03,0.597-1.929c0.398-0.897,1.09-1.812,2.076-2.741
			C25.864,34.093,26.95,33.628,28.139,33.628 M31.709,21.397c-1.47,0-2.839,0.556-3.96,1.608c-1.175,1.104-1.795,2.496-1.795,4.027
			c0,1.356,0.527,2.603,1.484,3.512c0.038,0.036,0.077,0.071,0.115,0.106c-1.727,0.138-3.353,0.887-4.732,2.188
			c-1.272,1.199-2.2,2.446-2.76,3.707c-0.6,1.358-0.855,2.298-0.855,3.146c0,1.704,1.18,3.432,3.441,3.66
			c-1.234,3.314-1.354,4.217-1.354,4.872c0,2.007,0.852,3.765,2.397,4.948c1.339,1.031,2.902,1.557,4.639,1.557
			c1.283,0,2.505-0.319,3.632-0.948c0.987-0.552,1.833-1.239,2.514-2.043c0.566-0.672,1.067-1.389,1.496-2.136
			c0.438-0.77,0.754-1.443,0.97-2.065c0.276-0.791,0.396-1.364,0.396-1.908V45.54l-0.005-0.089c-0.093-1.562-1.234-3.236-3.52-3.432
			c1.246-3.343,1.364-4.225,1.364-4.904c0-1.914-0.784-3.577-2.268-4.81c-0.244-0.203-0.499-0.387-0.764-0.554
			c1.051-0.236,2.007-0.771,2.812-1.583c1.403-1.413,1.698-2.908,1.698-3.913c0-1.326-0.525-2.562-1.479-3.48
			C34.244,21.876,33.044,21.397,31.709,21.397L31.709,21.397z"/>
	</g>
	<g>
		<path fill="#FFFFFF" d="M35.536,40.362c-1.342,0-2.044-0.937-2.044-1.861c0-0.344,0.089-0.712,0.307-1.274
			c0.16-0.415,0.396-0.913,0.703-1.478c0.349-0.64,0.849-1.299,1.53-2.019c0.604-0.638,1.291-1.219,2.045-1.731
			c-0.766-0.057-1.437-0.383-1.951-0.953c-0.527-0.583-0.806-1.342-0.806-2.194c0-0.923,0.3-1.931,0.892-2.998
			c0.571-1.037,1.43-1.974,2.55-2.783c1.198-0.864,2.52-1.303,3.929-1.303c1.601,0,2.949,0.444,4.009,1.321
			c0.785,0.65,1.719,1.863,1.719,3.952c0,1.725-0.567,3.182-1.686,4.33c-0.469,0.481-1.067,0.971-1.804,1.477
			c0.256-0.094,0.547-0.14,0.879-0.14h0.124c1.414,0,2.058,0.956,2.058,1.844c0,0.452-0.133,0.967-0.417,1.623
			c-0.227,0.532-0.545,1.1-0.943,1.679c-0.452,0.661-1.056,1.237-1.793,1.713c-0.814,0.526-1.703,0.793-2.642,0.793
			c-0.82,0-1.632-0.229-2.411-0.679c-0.573-0.33-1.123-0.662-1.639-0.993c-0.114-0.073-0.21-0.124-0.291-0.159
			c-0.04,0.095-0.086,0.218-0.139,0.375c-0.275,0.886-1.049,1.456-2.009,1.456H35.536z M41.406,34.893
			c0.499,0.04,0.874,0.06,1.122,0.06c0.424,0,0.613-0.119,0.72-0.208c0.244-0.206,0.407-0.413,0.483-0.612
			c0.104-0.254,0.252-0.562,0.505-0.828c-0.618,0.389-1.316,0.788-2.1,1.2C41.843,34.659,41.6,34.789,41.406,34.893z M42.643,25.615
			c0.128,0.28,0.218,0.567,0.268,0.856c0.012-0.135,0.018-0.268,0.018-0.397c0-0.3-0.052-0.405-0.053-0.406
			C42.856,25.667,42.784,25.626,42.643,25.615z"/>
		<path fill="#2C3E50" d="M42.691,23.271c1.252,0,2.267,0.326,3.053,0.977c0.784,0.65,1.175,1.583,1.175,2.796
			c0,1.326-0.42,2.421-1.26,3.283c-0.84,0.861-2.246,1.812-4.221,2.851c-0.545,0.287-0.923,0.491-1.135,0.612
			c-0.214,0.121-0.503,0.302-0.865,0.541c-0.362,0.239-0.687,0.498-0.975,0.777c-0.29,0.28-0.598,0.615-0.923,1.004
			c0.583,0,1.442,0.057,2.576,0.171c1.136,0.113,1.938,0.171,2.411,0.171c0.681,0,1.242-0.187,1.687-0.562
			c0.443-0.375,0.75-0.784,0.918-1.225c0.077-0.186,0.153-0.308,0.234-0.368c0.08-0.059,0.228-0.09,0.441-0.09h0.124
			c0.371,0,0.558,0.114,0.558,0.344s-0.096,0.571-0.293,1.026c-0.193,0.454-0.462,0.93-0.804,1.428
			c-0.342,0.499-0.8,0.933-1.371,1.302s-1.179,0.553-1.827,0.553c-0.555,0-1.108-0.158-1.661-0.478
			c-0.553-0.318-1.082-0.638-1.578-0.957c-0.501-0.319-0.963-0.478-1.394-0.478c-0.287,0-0.524,0.109-0.711,0.328
			c-0.188,0.218-0.373,0.603-0.557,1.15c-0.09,0.289-0.284,0.434-0.587,0.434h-0.167c-0.001,0-0.003,0-0.004,0
			c-0.364,0-0.544-0.121-0.544-0.361c0-0.135,0.068-0.378,0.205-0.732c0.136-0.354,0.343-0.789,0.623-1.304
			c0.281-0.516,0.713-1.083,1.3-1.702c0.585-0.619,1.25-1.168,1.989-1.647c0.015-0.014,0.318-0.195,0.914-0.542
			s1.087-0.652,1.479-0.918c0.391-0.264,0.84-0.674,1.342-1.227c0.502-0.552,0.856-1.119,1.063-1.702
			c0.348-0.951,0.52-1.835,0.52-2.653c0-0.706-0.183-1.208-0.553-1.51c-0.369-0.302-0.807-0.453-1.309-0.453
			c-0.821,0-1.597,0.301-2.328,0.905c-0.733,0.603-1.291,1.28-1.674,2.028c-0.384,0.75-0.576,1.411-0.576,1.985
			c0,0.419,0.15,0.633,0.455,0.64c0.517,0,1.007-0.315,1.477-0.948c0.465-0.633,0.697-1.185,0.697-1.655
			c0-0.183-0.05-0.369-0.151-0.556c-0.105-0.188-0.155-0.312-0.155-0.37c0-0.103,0.045-0.2,0.133-0.292
			c0.089-0.092,0.188-0.138,0.3-0.138c0.18,0,0.348,0.147,0.493,0.44c0.147,0.294,0.222,0.583,0.222,0.871
			c0,0.693-0.306,1.448-0.928,2.264c-0.622,0.815-1.357,1.223-2.208,1.223c-0.441,0-0.801-0.156-1.083-0.467
			c-0.281-0.311-0.419-0.708-0.419-1.188c0-0.666,0.233-1.422,0.703-2.27c0.469-0.85,1.175-1.614,2.117-2.294
			C40.581,23.611,41.6,23.271,42.691,23.271 M42.691,20.271c-1.73,0-3.348,0.534-4.807,1.586c-1.302,0.94-2.307,2.042-2.988,3.278
			c-0.713,1.285-1.076,2.539-1.076,3.719c0,1.23,0.413,2.337,1.193,3.2c0.091,0.1,0.185,0.196,0.282,0.286
			c-0.121,0.118-0.239,0.239-0.355,0.361c-0.771,0.813-1.345,1.576-1.755,2.329c-0.345,0.635-0.602,1.177-0.788,1.661
			c-0.284,0.732-0.406,1.275-0.406,1.811c0,1.63,1.242,3.361,3.544,3.361h0.171c1.093,0,2.066-0.456,2.73-1.229
			c0.194,0.115,0.395,0.232,0.6,0.351c1.007,0.582,2.07,0.878,3.158,0.878c1.232,0,2.395-0.348,3.455-1.033
			c0.905-0.585,1.651-1.3,2.218-2.125c0.453-0.66,0.819-1.316,1.089-1.948c0.361-0.833,0.533-1.538,0.533-2.202
			c0-0.957-0.434-1.948-1.265-2.601c1.11-1.35,1.693-3.034,1.693-4.91c0-2.671-1.229-4.251-2.261-5.106
			C46.321,20.831,44.65,20.271,42.691,20.271L42.691,20.271z"/>
	</g>
</g>
</svg>
